<?xml version="1.0" standalone="no"?>
<!DOCTYPE svg PUBLIC "-//W3C//DTD SVG 20010904//EN"
 "http://www.w3.org/TR/2001/REC-SVG-20010904/DTD/svg10.dtd">
<svg version="1.0" xmlns="http://www.w3.org/2000/svg"
 width="400.000000pt" height="400.000000pt" viewBox="0 0 400.000000 400.000000"
 preserveAspectRatio="xMidYMid meet">
<metadata>
Created by potrace 1.11, written by Peter Selinger 2001-2013
</metadata>
<g transform="translate(0.000000,400.000000) scale(0.100000,-0.100000)"
fill="#000000" stroke="none">
<path d="M0 2000 l0 -2000 2000 0 2000 0 0 2000 0 2000 -2000 0 -2000 0 0
-2000z m1515 941 c189 -39 346 -123 479 -255 29 -29 62 -66 74 -83 l21 -30
-95 -159 c-53 -87 -99 -163 -104 -167 -4 -5 -23 20 -41 54 -97 182 -276 295
-484 306 -212 11 -399 -80 -512 -250 -69 -102 -94 -178 -100 -302 -6 -116 9
-191 60 -295 40 -82 160 -206 237 -245 120 -61 153 -68 340 -73 l176 -4 453
756 c250 416 457 756 461 756 5 0 1104 -1819 1118 -1852 2 -5 -366 -8 -817 -8
-507 0 -821 4 -821 9 0 6 44 83 98 173 l98 163 401 3 401 2 -234 393 c-129
215 -238 393 -242 395 -4 1 -160 -253 -348 -565 l-340 -568 -295 0 c-274 0
-300 2 -384 23 -435 112 -731 502 -712 942 19 460 345 821 807 893 70 11 222
5 305 -12z"/>
</g>
</svg>
